# xmcd
#
# Track frame offsets:
#	150
#	11310
#	21503
#	33335
#	43304
#	53566
#	64486
#	73999
#	89134
#	99849
#	111579
#	123299
#	132231
#	143583
#	152819
#	164154
#	174180
#	183365
#	194855
#	206125
#	217225
#	228095
#
# Disc length: 3180 seconds
#
# Revision: 1
# Processed by: cddbd v1.5.2PL0 Copyright (c) Steve Scherf et al.
# Submitted via: audiograbber 1.83.01
#
DISCID=510c6a16
DTITLE=conway twitty  - six classic albums cd4 singles a's and b's (1957 - 1962)
DYEAR=2013
DGENRE=Country
TTITLE0=i need your lovin' (1957)
TTITLE1=born to sing the blues (1957)
TTITLE2=shake it up (1957)
TTITLE3=maybe baby (1957)
TTITLE4=double talk baby (1958)
TTITLE5=why can't i get through to you (1958)
TTITLE6=when i'm not with you (1959)
TTITLE7=star sprangled heaven (1959)
TTITLE8=the hurt in my heart (1960)
TTITLE9=what am i living for (1960)
TTITLE10=is a blue bird blue (1960)
TTITLE11=tell me one more time (1960)
TTITLE12=what a dream (1960)
TTITLE13=teasin' (1960)
TTITLE14=i need you so (1960)
TTITLE15=c'est si bon (it's so good) (1960)
TTITLE16=comfy 'n cozy (1962)
TTITLE17=a little piece of my heart (1962)
TTITLE18=there is something on your mind (1962)
TTITLE19=unchained melody (1962)
TTITLE20=the pickup (1962)
TTITLE21=i hope, i think, i wish (1962)
EXTD=
EXTT0=
EXTT1=
EXTT2=
EXTT3=
EXTT4=
EXTT5=
EXTT6=
EXTT7=
EXTT8=
EXTT9=
EXTT10=
EXTT11=
EXTT12=
EXTT13=
EXTT14=
EXTT15=
EXTT16=
EXTT17=
EXTT18=
EXTT19=
EXTT20=
EXTT21=
PLAYORDER=
